# xmcd CD database file
# Generated: lun fév 10 15:50:49 2003 by KSCD
# 
# Track frame offsets:
#       150
#       28944
#       48458
#       74644
#       100501
#       121288
#       138536
#       157180
#       186537
#       197780
#       239734
#       272290
#
# Disc length: 3860 seconds
#
# Revision: 1
# Processed by: cddbd v1.4PL0 Copyright (c) Steve Scherf et al.
# Submitted via: Kscd 1.3.3
#
DISCID=ba0f120c
DTITLE=New Chump Change and the Blue Bills - new money's here
DYEAR=1900
DGENRE=
TTITLE0=I wanna party
TTITLE1=If you don't like the blues
TTITLE2=Try me one more time
TTITLE3=All your love
TTITLE4=They call me Freddy Red
TTITLE5=New money's here
TTITLE6=The Bills run out
TTITLE7=You're so evil
TTITLE8=Stranger in my own home town
TTITLE9=Hard beatin' woman
TTITLE10=Spread these blues around
TTITLE11=Going home
EXTD=Very nice blues
EXTT0=
EXTT1=R. Lott
EXTT2=T. Scott
EXTT3=R. Lott
EXTT4=S. Maghett
EXTT5=R. Lott
EXTT6=R. Lott - F. Duclaux
EXTT7=R. Lott
EXTT8=R. Lott
EXTT9=P. Mayfield
EXTT10=R. Lott
EXTT11=R. Lott
PLAYORDER=
